<?xml version="1.0" standalone="no"?><!DOCTYPE svg PUBLIC "-//W3C//DTD SVG 1.1//EN" "http://www.w3.org/Graphics/SVG/1.1/DTD/svg11.dtd"><svg t="1767532039392" class="icon" viewBox="0 0 1024 1024" version="1.1" xmlns="http://www.w3.org/2000/svg" p-id="26446" xmlns:xlink="http://www.w3.org/1999/xlink" width="200" height="200"><path d="M250.1 556.1c0-37.2-22-69-53.6-83.9 19.7-159.2 155.6-282.9 320-282.9 123.4 0 230.8 69.6 285.1 171.6L867 335c-64.8-127.8-197.6-215.7-350.5-215.7-201.9 0-368.5 153.2-390.1 349.4C90.2 481.5 64 515.6 64 556.1c0 51.3 41.7 93 93 93s93.1-41.6 93.1-93z m-93 39.3c-21.6 0-39.2-17.6-39.2-39.2s17.6-39.2 39.2-39.2 39.2 17.6 39.2 39.2-17.6 39.2-39.2 39.2zM867 376.6c-51.3 0-93 41.7-93 93 0 40.3 25.9 74.3 61.8 87.2-21.9 156.8-156.5 277.9-319.2 277.9-122.5 0-229.3-68.6-284-169.5L165 686.9c64.4 129 197.8 217.8 351.5 217.8 202.6 0 369.8-154.3 390.5-351.5 31.2-15 53-46.7 53-83.6 0-51.3-41.7-93-93-93z m0 132.2c-21.6 0-39.2-17.6-39.2-39.2s17.6-39.2 39.2-39.2 39.2 17.6 39.2 39.2-17.6 39.2-39.2 39.2zM371.4 389.7L258.7 530.3l112 140.8 56-44.5-76.5-96.1 77.1-96.1-55.9-44.7z m277 281.4l112-140.8-112.8-140.6-55.8 44.7 77.1 96.1-76.5 96.1 56 44.5z m-152.8 9.3l95.1-276.6-67.7-23.3-95.1 276.6 67.7 23.3z" fill="#33c6e5" p-id="26447"></path></svg>